<svg width="14" height="11" viewBox="0 0 14 11" fill="none" xmlns="http://www.w3.org/2000/svg">
<path d="M12.6875 0.0214844H1.31251C0.588747 0.0214844 0 0.582717 0 1.27265V8.77962C0 9.46956 0.588747 10.0308 1.31251 10.0308H12.6875C13.4113 10.0308 14 9.46956 14 8.77962V1.27265C14 0.582717 13.4113 0.0214844 12.6875 0.0214844ZM12.6875 0.855589C12.7469 0.855589 12.8035 0.867345 12.8552 0.887876L7 5.72544L1.14479 0.887876C1.19649 0.867373 1.25304 0.855589 1.31248 0.855589H12.6875ZM12.6875 9.19666H1.31251C1.07112 9.19666 0.874996 9.00973 0.874996 8.77959V1.76912L6.71331 6.59253C6.79578 6.66053 6.89789 6.69435 7 6.69435C7.10211 6.69435 7.20422 6.66055 7.28669 6.59253L13.125 1.76912V8.77962C13.125 9.00973 12.9289 9.19666 12.6875 9.19666Z" fill="#757575"/>
</svg>
